 <svg  version="1.0" xmlns="http://www.w3.org/2000/svg"  width="300.000000pt" height="300.000000pt" viewBox="0 0 300.000000 300.000000"  preserveAspectRatio="xMidYMid meet">  <g transform="translate(0.000000,300.000000) scale(0.100000,-0.100000)" fill="#ffffff" stroke="none"> <path d="M1355 2993 c-201 -24 -375 -76 -544 -163 -411 -213 -697 -599 -788 -1065 -24 -125 -24 -405 0 -530 29 -148 74 -279 142 -413 316 -622 1021 -945 1696 -777 127 32 209 64 339 131 401 208 687 598 777 1059 25 128 24 396 -1 530 -135 721 -763 1242 -1486 1233 -58 0 -118 -3 -135 -5z m452 -827 c69 -33 105 -86 111 -166 l4 -58 142 -4 c128 -3 144 -5 180 -27 75 -47 76 -48 76 -541 0 -432 0 -435 -23 -475 -14 -26 -37 -48 -67 -62 l-44 -23 -686 0 c-646 0 -687 1 -726 19 -23 10 -52 34 -65 52 l-24 34 -3 440 c-3 502 -3 504 71 553 38 26 48 27 183 30 l142 4 4 58 c6 78 40 129 109 164 l53 26 255 0 c250 0 257 -1 308 -24z"/> <path d="M1236 2039 c-25 -20 -27 -25 -24 -93 l3 -71 285 0 285 0 3 71 c3 68 1 73 -24 93 -25 20 -38 21 -264 21 -226 0 -239 -1 -264 -21z"/> </g> </svg> 